<?xml version="1.0" standalone="no"?>
<!DOCTYPE svg PUBLIC "-//W3C//DTD SVG 20010904//EN"
 "http://www.w3.org/TR/2001/REC-SVG-20010904/DTD/svg10.dtd">
<svg version="1.0" xmlns="http://www.w3.org/2000/svg"
 width="1024.000000pt" height="1024.000000pt" viewBox="0 0 1024.000000 1024.000000"
 preserveAspectRatio="xMidYMid meet">

<g transform="translate(0.000000,1024.000000) scale(0.100000,-0.100000)"
fill="#fff" stroke="none">
<path d="M5874 7071 c-28 -13 -46 -30 -60 -57 -18 -37 -19 -62 -16 -506 l2
-466 -27 -6 c-16 -3 -73 -13 -128 -22 -466 -75 -989 -244 -1440 -464 -623
-305 -1157 -689 -1660 -1194 -446 -449 -767 -897 -783 -1093 -6 -76 5 -93 59
-93 57 0 108 28 357 192 362 241 715 444 1234 712 589 305 1223 561 1811 732
200 57 536 144 561 144 13 0 16 -62 18 -492 3 -547 2 -536 70 -578 54 -33 101
-35 160 -7 29 13 233 138 453 277 1653 1045 1903 1205 1937 1242 66 71 59 187
-15 242 -18 13 -246 153 -507 311 -1508 913 -1840 1111 -1885 1127 -64 22 -90
22 -141 -1z"/>
</g>
</svg>
